<?xml version="1.0" encoding="UTF-8" standalone="no"?>
<svg
   version="1.2"
   viewBox="0 0 448 442.29999"
   width="448"
   height="442.29999"
   id="svg170"
   sodipodi:docname="logonbctf.svg"
   inkscape:version="1.2.1 (9c6d41e410, 2022-07-14)"
   xmlns:inkscape="http://www.inkscape.org/namespaces/inkscape"
   xmlns:sodipodi="http://sodipodi.sourceforge.net/DTD/sodipodi-0.dtd"
   xmlns="http://www.w3.org/2000/svg"
   xmlns:svg="http://www.w3.org/2000/svg">
  <sodipodi:namedview
     id="namedview172"
     pagecolor="#505050"
     bordercolor="#eeeeee"
     borderopacity="1"
     inkscape:showpageshadow="0"
     inkscape:pageopacity="0"
     inkscape:pagecheckerboard="0"
     inkscape:deskcolor="#505050"
     showgrid="false"
     inkscape:zoom="0.864"
     inkscape:cx="750"
     inkscape:cy="500.5787"
     inkscape:window-width="2400"
     inkscape:window-height="1321"
     inkscape:window-x="2391"
     inkscape:window-y="-9"
     inkscape:window-maximized="1"
     inkscape:current-layer="svg170" />
  <title
     id="title142">logo 2-ai</title>
  <defs
     id="defs159">
    <linearGradient
       id="g1"
       x1="806.5"
       y1="226.3"
       x2="806.5"
       y2="629.59998"
       gradientUnits="userSpaceOnUse">
      <stop
         offset="0"
         stop-color="#30c1ce"
         id="stop144" />
      <stop
         offset="1"
         stop-color="#e4c343"
         id="stop146" />
    </linearGradient>
    <linearGradient
       id="g2"
       x1="975.79999"
       y1="226.3"
       x2="975.79999"
       y2="629.59998"
       gradientUnits="userSpaceOnUse">
      <stop
         offset="0"
         stop-color="#30c1ce"
         id="stop149" />
      <stop
         offset="1"
         stop-color="#e4c343"
         id="stop151" />
    </linearGradient>
    <linearGradient
       id="g3"
       x1="729.40002"
       y1="226.3"
       x2="729.40002"
       y2="629.59998"
       gradientUnits="userSpaceOnUse">
      <stop
         offset="0"
         stop-color="#30c1ce"
         id="stop154" />
      <stop
         offset="1"
         stop-color="#e4c343"
         id="stop156" />
    </linearGradient>
  </defs>
  <style
     id="style161">
		.s0 { fill: url(#g1) } 
		.s1 { fill: url(#g2) } 
		.s2 { fill: url(#g3) } 
	</style>
  <g
     id="Layer 1"
     transform="translate(-525.8,-207.5)">
    <g
       id="&lt;Group&gt;">
      <path
         id="&lt;Path&gt;"
         class="s0"
         d="m 788.3,439.7 c 8.9,0 16.2,7.2 16.2,16.2 0,8.9 -7.3,16.1 -16.2,16.1 -8.9,0 -16.2,-7.2 -16.2,-16.1 0,-9 7.3,-16.2 16.2,-16.2 z"
         style="fill:url(#g1)" />
      <path
         id="path164"
         class="s1"
         d="m 916.7,499.9 c -61.8,87.2 -152.2,141.2 -158,144.6 l -9,5.3 -9,-5.3 C 735,641.1 645,586.9 583.3,499.9 h 72.4 c 8.9,9.9 18,19.3 27.2,28 v -30.3 c -31.4,-32.8 -61.7,-74.2 -73.7,-120.2 37.2,-14.3 88.9,-37.7 140.5,-72.5 q 14.1,9.5 28,17.9 V 420 c -15.5,4.6 -26.8,18.9 -26.8,35.9 0,20.6 16.8,37.4 37.4,37.4 20.7,0 37.4,-16.8 37.4,-37.4 0,-17 -11.3,-31.3 -26.7,-35.9 V 310.6 c -4.9,-2.8 -9.8,-5.7 -14.6,-8.7 -2.3,-1.4 -4.5,-2.7 -6.7,-4.1 q -11,-6.9 -21.9,-14.5 l -6,-4.2 -6.1,4.2 c -56,38.8 -112.9,63.5 -150.7,77.5 l -8.6,3.1 1.9,9 c 8,39 27.8,74.7 51.8,105.7 H 569.3 C 543.7,437 525.8,388.9 525.8,336.1 v -13.6 l 13.1,-3.5 c 1.1,-0.3 109,-30 199.8,-102.6 l 11.1,-8.9 11,8.9 c 90.9,72.7 198.9,103.2 200,103.5 l 13,3.6 V 337 c 0,52.5 -17.8,100.3 -43.1,141.6 H 862 c 23.7,-30.8 43.3,-66.3 51.3,-105.1 l 1.8,-8.9 -8.5,-3.1 c -24,-9 -55.7,-22.4 -89.9,-41 v 24.1 c 27.4,14.2 52.9,25.3 73.7,33.4 -21.2,81.7 -100.6,148.9 -140.5,178.4 -8,-5.9 -17.6,-13.4 -28.1,-22.2 v -109 c 15.5,-4.6 26.9,-18.9 26.9,-35.8 0,-20.7 -16.8,-37.5 -37.5,-37.5 -20.6,0 -37.4,16.8 -37.4,37.5 0,16.9 11.3,31.2 26.8,35.8 v 118.9 c 4.5,3.9 8.9,7.6 13.2,11.1 q 4.1,3.4 8,6.5 c 7.8,6.2 15.1,11.7 21.8,16.5 l 6.2,4.5 6.2,-4.5 c 24.7,-17.6 58.2,-44.5 88.3,-78.3 z"
         style="fill:url(#g2)" />
      <path
         id="path166"
         class="s2"
         d="m 711.2,405.5 c -8.9,0 -16.2,-7.2 -16.2,-16.1 0,-9 7.3,-16.2 16.2,-16.2 8.9,0 16.2,7.2 16.2,16.2 0,8.9 -7.3,16.1 -16.2,16.1 z"
         style="fill:url(#g3)" />
    </g>
  </g>
</svg>
